<svg width="32" height="32" viewBox="0 0 32 32" fill="none" xmlns="http://www.w3.org/2000/svg">
  <!-- Icon version for favicon -->
  <circle cx="16" cy="16" r="15" fill="#1E40AF"/>
  <path d="M10 12C10 11.4477 10.4477 11 11 11H15C15.5523 11 16 11.4477 16 12V24C16 24.5523 15.5523 25 15 25H11C10.4477 25 10 24.5523 10 24V12Z" fill="white"/>
  <path d="M16 14H17V16H16V14Z" fill="#1E40AF"/>
  <path d="M16 19H18V21H16V19Z" fill="#1E40AF"/>
  <path d="M16 17H19V18H16V17Z" fill="#1E40AF"/>
  <path d="M16 15H20V16H16V15Z" fill="#1E40AF"/>
  <circle cx="13" cy="17" r="9" stroke="white" stroke-width="2" fill="none"/>
  <line x1="21.8284" y1="23.8284" x2="26.5858" y2="28.5858" stroke="white" stroke-width="2" stroke-linecap="round"/>
</svg>

