<svg width="150" height="36" viewBox="0 0 150 36" fill="none" xmlns="http://www.w3.org/2000/svg">
  <!-- Background -->
  <rect width="150" height="36" rx="4" fill="#1E40AF"/>
  
  <!-- Magnifying glass with document icon -->
  <g>
    <!-- Document background (inside magnifying glass) -->
    <path d="M10 12C10 11.4477 10.4477 11 11 11H15C15.5523 11 16 11.4477 16 12V24C16 24.5523 15.5523 25 15 25H11C10.4477 25 10 24.5523 10 24V12Z" fill="white"/>
    <path d="M16 14H17V16H16V14Z" fill="#1E40AF"/>
    <path d="M16 19H18V21H16V19Z" fill="#1E40AF"/>
    <path d="M16 17H19V18H16V17Z" fill="#1E40AF"/>
    <path d="M16 15H20V16H16V15Z" fill="#1E40AF"/>
    
    <!-- Magnifying glass frame -->
    <circle cx="13" cy="17" r="9" stroke="white" stroke-width="2" fill="none"/>
    <line x1="21.0711" y1="23.0711" x2="25.8284" y2="27.8284" stroke="white" stroke-width="2" stroke-linecap="round"/>
  </g>
  
  <!-- SmarTrack text -->
  <text x="30" y="24" font-family="-apple-system, BlinkMacSystemFont, 'Segoe UI', Roboto, 'Helvetica Neue', Arial, sans-serif" font-size="16" font-weight="bold" fill="white" letter-spacing="0.5px">
    SmarTrack
  </text>
</svg>
